<svg xmlns="http://www.w3.org/2000/svg" width="32" height="32" fill="none" viewBox="0 0 50 50">
  <path d="M35.556 14.484v-.317a5.166 5.166 0 1 0-10.334 0h-3.444a5.166 5.166 0 1 0-10.334 0v.317C9.444 15.198 8 17.09 8 19.334v15.5A5.173 5.173 0 0 0 13.167 40h20.666A5.173 5.173 0 0 0 39 34.833v-15.5c0-2.242-1.445-4.135-3.444-4.85Zm-6.89-.317a1.722 1.722 0 1 1 3.445 0v3.444a1.722 1.722 0 1 1-3.444 0v-3.444Zm-13.777 0a1.722 1.722 0 1 1 3.444 0v3.444a1.722 1.722 0 1 1-3.444 0v-3.444Zm20.667 20.666c0 .95-.772 1.723-1.723 1.723H13.167a1.725 1.725 0 0 1-1.723-1.723V26.26h24.112v8.574Zm0-12.055H11.444v-3.445c0-.932.772-1.722 1.723-1.722a3.446 3.446 0 0 0 3.444 3.445 3.446 3.446 0 0 0 3.445-3.445h6.888a3.446 3.446 0 0 0 3.445 3.445 3.446 3.446 0 0 0 3.444-3.445c.951 0 1.723.773 1.723 1.722v3.445Z"/>
</svg>
