<svg xmlns="http://www.w3.org/2000/svg" width="32" height="32" fill="none" viewBox="0 0 50 50">
  <path fill-rule="evenodd" d="M17.372 9.5C11.91 9.5 7.5 14.112 7.5 19.742c0 2.428.382 6.107 3.702 9.558 1.461 1.522 4.513 3.912 7.214 5.934 2.71 2.029 5.113 3.72 5.319 3.864a2.195 2.195 0 0 0 2.531-.001c.196-.138 2.6-1.831 5.315-3.863 2.701-2.023 5.753-4.412 7.217-5.934 3.32-3.45 3.702-7.13 3.702-9.558 0-5.63-4.41-10.242-9.872-10.242-3.076 0-5.819 1.466-7.628 3.748-1.81-2.282-4.552-3.748-7.628-3.748Zm6.65 29.188-.286.41h-.001l.287-.41ZM11.987 19.742c0-3.115 2.434-5.617 5.385-5.617 2.95 0 5.384 2.502 5.384 5.617 0 1.258.985 2.313 2.244 2.313 1.259 0 2.244-1.055 2.244-2.313 0-3.115 2.434-5.617 5.384-5.617s5.385 2.502 5.385 5.617c0 1.912-.286 4.104-2.4 6.302-1.026 1.066-3.124 2.754-5.3 4.414A238.819 238.819 0 0 1 25 34.378a238.819 238.819 0 0 1-5.313-3.92c-2.176-1.66-4.274-3.348-5.3-4.414-2.114-2.198-2.4-4.39-2.4-6.302Z" clip-rule="evenodd"/>
</svg>
