<svg xmlns="http://www.w3.org/2000/svg" width="32" height="32" fill="black" viewBox="0 0 50 50">
  <path d="M24.315 35.416s9.06-11.054 9.06-15.946c0-4.893-3.986-9.06-9.06-9.06s-9.06 3.986-9.06 9.06 9.06 15.946 9.06 15.946Zm2.718 2.355-2.718 3.443-2.718-3.443c0-.18-.181-.362-.362-.543-.363-.363-.725-.906-1.088-1.45-1.087-1.45-2.174-2.9-3.261-4.53-.725-1.087-1.45-2.174-1.993-3.262-2.175-3.261-3.262-5.98-3.262-8.516 0-7.067 5.617-12.684 12.684-12.684C31.382 6.786 37 12.403 37 19.47c0 2.537-1.087 5.255-3.08 8.698-.544 1.087-1.269 2.174-1.993 3.261-1.088 1.631-2.175 3.08-3.262 4.53-.363.544-.725.906-1.087 1.45-.182.181-.363.362-.544.362Zm-2.718-23.737c3.08 0 5.436 2.355 5.436 5.436 0 3.08-2.356 5.436-5.436 5.436S18.88 22.55 18.88 19.47s2.356-5.436 5.436-5.436Zm0 3.624c-1.087 0-1.812.725-1.812 1.812 0 1.087.725 1.812 1.812 1.812 1.087 0 1.812-.725 1.812-1.812 0-1.087-.725-1.812-1.812-1.812Z"/>
</svg>
