<svg xmlns="http://www.w3.org/2000/svg" width="32" height="32" fill="none" viewBox="0 0 50 50">
  <path  d="M20.397 15v3.714a3.725 3.725 0 0 0 3.714 3.714 3.725 3.725 0 0 0 3.715-3.714V15a3.725 3.725 0 0 0-3.715-3.714A3.725 3.725 0 0 0 20.397 15Zm-3.714 0c0-4.086 3.343-7.429 7.428-7.429 4.086 0 7.429 3.343 7.429 7.429v3.714c0 4.086-3.343 7.429-7.429 7.429-4.085 0-7.428-3.343-7.428-7.429V15Zm16.714 5.571c0-1.114.743-1.857 1.857-1.857 1.114 0 1.857.743 1.857 1.857v1.857c0 5.2-4.085 9.286-9.285 9.286h-7.429c-5.2 0-9.286-4.086-9.286-9.286v-1.857c0-1.114.743-1.857 1.857-1.857 1.115 0 1.858.743 1.858 1.857v1.857c0 3.158 2.414 5.572 5.571 5.572h7.429c3.157 0 5.571-2.414 5.571-5.572v-1.857ZM22.254 31.714h3.714v5.572h-3.714v-5.572Zm-7.428 7.429c0-1.115.928-1.857 1.857-1.857H31.54c.928 0 1.857.742 1.857 1.857 0 1.114-.928 1.857-1.857 1.857H16.683c-1.114 0-1.857-.743-1.857-1.857Z"/>
</svg>
