<svg xmlns="http://www.w3.org/2000/svg" width="32" height="32" fill="none" viewBox="0 0 49 49">
  <path  fill-rule="evenodd" d="M34.834 22.76A10.9 10.9 0 0 0 35.5 19c0-6.05-4.95-11-11-11s-11 4.95-11 11c0 1.319.235 2.586.666 3.76C10.682 23.324 8 26.364 8 30v5.5c0 3.117 2.383 5.5 5.5 5.5h22c3.117 0 5.5-2.383 5.5-5.5V30c0-3.636-2.682-6.677-6.166-7.24ZM31.833 19c0 4.033-3.3 7.333-7.333 7.333-4.034 0-7.334-3.116-7.334-7.333 0-4.217 3.3-7.333 7.334-7.333 4.033 0 7.333 3.3 7.333 7.333Zm-15.515 7.333C18.336 28.581 21.26 30 24.5 30s6.163-1.42 8.18-3.667h.987A3.677 3.677 0 0 1 37.333 30v5.5c0 .917-.733 1.833-1.833 1.833h-22c-1.1 0-1.833-.733-1.833-1.833V30a3.677 3.677 0 0 1 3.666-3.667h.985Z" clip-rule="evenodd"/>
</svg>
