<svg xmlns="http://www.w3.org/2000/svg" width="32" height="32" fill="none" viewBox="0 0 50 32">
  <path fill-rule="evenodd" d="M13.83 0C6.204 0 0 6.205 0 13.83c0 7.624 6.205 13.829 13.83 13.829 1.4 0 2.738-.234 4-.624l4.364 4.343.015.014C23.441 32.428 24.976 33 26.538 33A6.467 6.467 0 0 0 33 26.538a6.4 6.4 0 0 0-1.905-4.576l-4.061-4.13a13.47 13.47 0 0 0 .625-4.003C27.659 6.205 21.454 0 13.829 0ZM4.807 13.83c0-4.974 4.048-9.022 9.021-9.022 4.974 0 9.021 4.048 9.021 9.021 0 4.974-4.047 9.021-9.02 9.021-4.974 0-9.022-4.047-9.022-9.02Zm17.104 10.49a12.034 12.034 0 0 0 2.402-2.402l3.387 3.453.005.005c.299.296.484.708.484 1.162 0 .914-.742 1.654-1.654 1.654-.448 0-.869-.18-1.217-.466l-3.407-3.406Z" clip-rule="evenodd"/>
</svg>
