<?xml version="1.0" encoding="UTF-8" standalone="no"?>
<svg
   width="50"
   height="50"
   fill="none"
   viewBox="0 0 78.125 78.125"
   version="1.1"
   id="svg4"
   sodipodi:docname="SearchIcon.svg"
   inkscape:version="1.1.1 (3bf5ae0d25, 2021-09-20)"
   xmlns:inkscape="http://www.inkscape.org/namespaces/inkscape"
   xmlns:sodipodi="http://sodipodi.sourceforge.net/DTD/sodipodi-0.dtd"
   xmlns="http://www.w3.org/2000/svg"
   xmlns:svg="http://www.w3.org/2000/svg">
  <defs
     id="defs8" />
  <sodipodi:namedview
     id="namedview6"
     pagecolor="#ffffff"
     bordercolor="#cccccc"
     borderopacity="1"
     inkscape:pageshadow="0"
     inkscape:pageopacity="1"
     inkscape:pagecheckerboard="0"
     showgrid="false"
     inkscape:zoom="10.65625"
     inkscape:cx="2.5337243"
     inkscape:cy="29.13783"
     inkscape:window-width="1920"
     inkscape:window-height="1017"
     inkscape:window-x="-8"
     inkscape:window-y="-8"
     inkscape:window-maximized="1"
     inkscape:current-layer="svg4" />
  <path
     fill-rule="evenodd"
     d="m 35.017025,14.0625 c -11.554534,0 -20.954525,9.401515 -20.954525,20.954545 0,11.551516 9.401506,20.953031 20.954525,20.953031 2.12121,0 4.148481,-0.354546 6.0606,-0.945455 l 6.612115,6.580303 0.02273,0.02121 c 1.866665,1.569699 4.192421,2.436366 6.559085,2.436366 a 9.7984754,9.7984848 0 0 0 9.7909,-9.790909 9.6969603,9.6969697 0 0 0 -2.886361,-6.933333 L 55.023069,41.080682 A 20.409071,20.409091 0 0 0 55.970038,35.01553 C 55.970035,23.464015 46.568529,14.0625 35.01551,14.0625 Z M 21.345826,35.017045 c 0,-7.536363 6.133328,-13.669697 13.668169,-13.669697 7.536356,0 13.668169,6.133334 13.668169,13.668182 0,7.536364 -6.131813,13.668182 -13.666654,13.668182 -7.536356,0 -13.669684,-6.131818 -13.669684,-13.666667 z m 25.915127,15.89394 a 18.233316,18.233333 0 0 0 3.63939,-3.639394 l 5.131813,5.231818 0.0076,0.0076 c 0.45303,0.448485 0.733333,1.072727 0.733333,1.760606 0,1.384848 -1.124242,2.506061 -2.506058,2.506061 -0.678788,0 -1.316666,-0.272728 -1.843938,-0.706061 z"
     clip-rule="evenodd"
     id="path2"
     style="stroke-width:1.51515" />
</svg>
