<svg xmlns="http://www.w3.org/2000/svg" viewBox="0 0 72.11 20.75"><defs><style>.cls-1{fill:#f1f2f2;}</style></defs><g id="Layer_2" data-name="Layer 2"><g id="Layer_1-2" data-name="Layer 1"><path class="cls-1" d="M5.59,7.27c0-.11,0-.21,0-.32A1,1,0,0,1,7.45,6.6a1.8,1.8,0,0,1,.22,1c0,1.09,0,2.18,0,3.28a2.42,2.42,0,0,0,.06.54,1.16,1.16,0,0,0,1,1c.41.06.82-.07,1.23,0a1.71,1.71,0,0,1,1.1.33,1.08,1.08,0,0,1,.37.93,1.1,1.1,0,0,1-.87.93,5.45,5.45,0,0,1-1.06.11,8.58,8.58,0,0,1-2.36-.25,2.29,2.29,0,0,1-1.45-1.52,8.6,8.6,0,0,1-.24-2.77c0-.56,0-1.12,0-1.68C5.57,8.08,5.56,7.67,5.59,7.27Z"/><path class="cls-1" d="M12.12,11.7c0-.48,0-.85,0-1.21A.85.85,0,0,1,13,9.8a1,1,0,0,1,1,.59,1.18,1.18,0,0,1,0,.2c.05.41.09.83.15,1.24a5.58,5.58,0,0,0,.17.89,1.48,1.48,0,0,0,.45.7,1.91,1.91,0,0,0,1.1.41,1.49,1.49,0,0,0,1.65-1,12.46,12.46,0,0,0,.13-1.37,4.28,4.28,0,0,0,0-.62,1.2,1.2,0,0,1,.08-.62,1.15,1.15,0,0,1,.93-.51,1.21,1.21,0,0,1,1,.41,1.19,1.19,0,0,1,.2.57,7.68,7.68,0,0,1-.09,1.79,4.09,4.09,0,0,1-.57,1.69,3.7,3.7,0,0,1-2.39,1.59,4.68,4.68,0,0,1-2-.09,4.09,4.09,0,0,1-1.73-.9,2.83,2.83,0,0,1-.85-1.61C12.2,12.63,12.17,12.11,12.12,11.7Z"/><path class="cls-1" d="M27.17,10.22c-.13-.27-.72.46-.82.57-.35.39-.84,1.05-1.45.85a.88.88,0,0,1-.36-.24c-.27-.29-.5-.63-.75-.94-.13-.15-.27-.43-.41-.38a.48.48,0,0,0-.25.47c0,.3-.05.6-.08.9,0,.45-.07.89-.11,1.33a2.93,2.93,0,0,1-.2,1.18,1,1,0,0,1-1,.52,1.06,1.06,0,0,1-.88-1,10.85,10.85,0,0,1,0-1.71c0-1.36,0-2.71.1-4.07A1.46,1.46,0,0,1,23,6.53a4.26,4.26,0,0,1,1.05.79c.21.2.68.73.95,1a.24.24,0,0,0,.38,0l.1-.15a4.72,4.72,0,0,1,1.72-1.6,1.81,1.81,0,0,1,1-.22A1.17,1.17,0,0,1,29,6.8a2.8,2.8,0,0,1,.4,1.56c0,.38,0,.75,0,1.13l0,3.4a2.16,2.16,0,0,1-.12.8,1.07,1.07,0,0,1-.75.62,1.05,1.05,0,0,1-.93-.26,2.07,2.07,0,0,1-.45-1.5c0-.73,0-1.46,0-2.19A.26.26,0,0,0,27.17,10.22Z"/><path class="cls-1" d="M33,15.05a3.05,3.05,0,0,1-2.34-.91,2.35,2.35,0,0,1-.47-1.93,1.08,1.08,0,0,1,.92-.9,1.12,1.12,0,0,1,1.08.48,3,3,0,0,0,.34.53,1.3,1.3,0,0,0,1.36.26.85.85,0,0,0,.47-.44.83.83,0,0,0-.25-1,3.29,3.29,0,0,0-.94-.37A3.34,3.34,0,0,1,32,10.17a2.47,2.47,0,0,1,.41-3.93l.09,0a3.32,3.32,0,0,1,1.6-.39c.77,0,2.11.25,2.29,1.16a1,1,0,0,1-1.29,1.09,3.09,3.09,0,0,0-1-.28.64.64,0,0,0-.62.36.44.44,0,0,0,0,.39c.26.38.93.32,1.35.43a2.87,2.87,0,0,1,1.24.6A3,3,0,0,1,37,11.83a3,3,0,0,1-1.53,2.62A5.11,5.11,0,0,1,33,15.05Z"/><path class="cls-1" d="M37.56,13.26v0a14.36,14.36,0,0,1,.46-2.9,9.21,9.21,0,0,1,.83-2.21A4.28,4.28,0,0,1,40,6.71a2.73,2.73,0,0,1,2.09-.53,3.05,3.05,0,0,1,2,1.82,9.2,9.2,0,0,1,.6,2.76c.07.69.14,1.38.22,2.07a2.15,2.15,0,0,1-.07,1.1,1.07,1.07,0,0,1-1.83.21,2.85,2.85,0,0,1-.35-1,1.2,1.2,0,0,0-1.16-.95,1.72,1.72,0,0,0-1.55.61,5.21,5.21,0,0,0-.43,1,1.34,1.34,0,0,1-.86.89.88.88,0,0,1-.79-.19A1.51,1.51,0,0,1,37.56,13.26Zm4.52-3a.33.33,0,0,0,.24-.1.42.42,0,0,0,0-.38c-.07-.39-.25-1.57-.87-1.37a1.87,1.87,0,0,0-1,1.54.26.26,0,0,0,.12.22.32.32,0,0,0,.17,0c.37,0,.74.05,1.12.06Z"/><path class="cls-1" d="M45.6,10.66a20.44,20.44,0,0,1,.13-2.47c.29-2.46,3.33-2,5.12-2a2.15,2.15,0,0,1,1,.2,1.12,1.12,0,0,1,.51.69,1,1,0,0,1-.2.84,1.54,1.54,0,0,1-1.25.49c-.47,0-.86,0-1.33,0a1.34,1.34,0,0,0-1.14.33,1.07,1.07,0,0,0-.28.8.43.43,0,0,0,.22.36.59.59,0,0,0,.23,0,2.79,2.79,0,0,1,1.49.14,1,1,0,0,1,.44,1.09,1.05,1.05,0,0,1-.95.82c-.29,0-.59,0-.88,0a.9.9,0,0,0-1,.95c0,.28,0,.55,0,.83a1,1,0,0,1-2,0C45.68,12.72,45.61,11.69,45.6,10.66Z"/><path class="cls-1" d="M52.65,13.26v0a14.34,14.34,0,0,1,.45-2.9,9.66,9.66,0,0,1,.83-2.21,4.31,4.31,0,0,1,1.18-1.4,2.71,2.71,0,0,1,2.09-.53,3.06,3.06,0,0,1,2,1.82,8.91,8.91,0,0,1,.6,2.76c.07.69.15,1.38.22,2.07a2.15,2.15,0,0,1-.07,1.1,1.11,1.11,0,0,1-.85.63,1.12,1.12,0,0,1-1-.42,3.28,3.28,0,0,1-.35-1,1.18,1.18,0,0,0-1.15-.95,1.72,1.72,0,0,0-1.55.61,4.7,4.7,0,0,0-.44,1,1.31,1.31,0,0,1-.85.89.87.87,0,0,1-.79-.19A1.44,1.44,0,0,1,52.65,13.26Zm4.52-3a.35.35,0,0,0,.24-.1.45.45,0,0,0,.05-.38c-.08-.39-.26-1.57-.88-1.37a1.87,1.87,0,0,0-1,1.54.29.29,0,0,0,.12.22.34.34,0,0,0,.17,0l1.12.06Z"/><path class="cls-1" d="M65.63,11.64c.21.18.46.35.66.53a4.73,4.73,0,0,1,.61.57,1.27,1.27,0,0,1,.29.87,1,1,0,0,1-.38.68,1,1,0,0,1-.77.23,1.42,1.42,0,0,1-.6-.3,13.63,13.63,0,0,1-1.07-1.08c-.32-.31-.36-.46-.82-.46h-.83v.89a1,1,0,0,1-.56.94,1,1,0,0,1-1.37-.72,13.12,13.12,0,0,1-.15-2.66c0-1.47-.2-3.48,1.2-4.43a3.16,3.16,0,0,1,1.95-.43A2.92,2.92,0,0,1,66.56,8.5a3.15,3.15,0,0,1-.67,2.85ZM62.76,9.73c0,.38.09.72.45.73a1.47,1.47,0,0,0,1.11-.7.89.89,0,0,0-.15-1.11,1.12,1.12,0,0,0-.77-.21.55.55,0,0,0-.52.34A4.25,4.25,0,0,0,62.76,9.73Z"/><path class="cls-1" d="M66.94,20.75H5.17A5.18,5.18,0,0,1,0,15.58V5.17A5.18,5.18,0,0,1,5.17,0H66.94a5.18,5.18,0,0,1,5.17,5.17V15.58A5.18,5.18,0,0,1,66.94,20.75ZM5.17,2A3.17,3.17,0,0,0,2,5.17V15.58a3.17,3.17,0,0,0,3.17,3.17H66.94a3.18,3.18,0,0,0,3.17-3.17V5.17A3.18,3.18,0,0,0,66.94,2Z"/><circle class="cls-1" cx="13.34" cy="6.92" r="1.54"/><circle class="cls-1" cx="18.75" cy="6.92" r="1.54"/></g></g></svg>